<mxfile host="app.diagrams.net" modified="2021-05-22T03:25:45.008Z" agent="5.0 (Windows NT 10.0; Win64; x64) AppleWebKit/537.36 (KHTML, like Gecko) Chrome/90.0.4430.212 Safari/537.36" etag="BLSp-I5oDtO24lCRBZ_K" version="14.7.0" type="github">
  <diagram id="r2fq_zGuT858FxEKPzRV" name="Page-1">
    <mxGraphModel dx="1039" dy="654" grid="1" gridSize="10" guides="1" tooltips="1" connect="1" arrows="1" fold="1" page="1" pageScale="1" pageWidth="850" pageHeight="1100" math="0" shadow="0">
      <root>
        <mxCell id="0" />
        <mxCell id="1" parent="0" />
        <mxCell id="HXylfOp5oMyHPqCK17O3-43" value="" style="rounded=0;whiteSpace=wrap;html=1;fillColor=#dae8fc;strokeColor=#6c8ebf;" vertex="1" parent="1">
          <mxGeometry x="250" y="310" width="590" height="220" as="geometry" />
        </mxCell>
        <mxCell id="HXylfOp5oMyHPqCK17O3-33" value="" style="rounded=0;whiteSpace=wrap;html=1;fillColor=#d5e8d4;strokeColor=#82b366;" vertex="1" parent="1">
          <mxGeometry x="250" y="5" width="590" height="285" as="geometry" />
        </mxCell>
        <mxCell id="HXylfOp5oMyHPqCK17O3-1" value="&lt;b&gt;Artificial Intelligence&lt;/b&gt;" style="whiteSpace=wrap;html=1;aspect=fixed;fillColor=#ffcd28;strokeColor=#d79b00;gradientColor=#ffa500;" vertex="1" parent="1">
          <mxGeometry x="10" y="485" width="130" height="130" as="geometry" />
        </mxCell>
        <mxCell id="HXylfOp5oMyHPqCK17O3-2" value="supervised learning" style="rounded=1;whiteSpace=wrap;html=1;" vertex="1" parent="1">
          <mxGeometry x="270" y="115" width="100" height="60" as="geometry" />
        </mxCell>
        <mxCell id="HXylfOp5oMyHPqCK17O3-4" value="unsupervised learning" style="rounded=1;whiteSpace=wrap;html=1;" vertex="1" parent="1">
          <mxGeometry x="270" y="320" width="120" height="60" as="geometry" />
        </mxCell>
        <mxCell id="HXylfOp5oMyHPqCK17O3-5" value="Other" style="rounded=1;whiteSpace=wrap;html=1;" vertex="1" parent="1">
          <mxGeometry x="270" y="440" width="120" height="60" as="geometry" />
        </mxCell>
        <mxCell id="HXylfOp5oMyHPqCK17O3-6" value="regression" style="rounded=1;whiteSpace=wrap;html=1;" vertex="1" parent="1">
          <mxGeometry x="400" y="30" width="100" height="60" as="geometry" />
        </mxCell>
        <mxCell id="HXylfOp5oMyHPqCK17O3-7" value="classification" style="rounded=1;whiteSpace=wrap;html=1;" vertex="1" parent="1">
          <mxGeometry x="410" y="163" width="100" height="60" as="geometry" />
        </mxCell>
        <mxCell id="HXylfOp5oMyHPqCK17O3-8" value="" style="endArrow=classic;html=1;exitX=1;exitY=0.5;exitDx=0;exitDy=0;entryX=0;entryY=0.5;entryDx=0;entryDy=0;" edge="1" parent="1" source="HXylfOp5oMyHPqCK17O3-2" target="HXylfOp5oMyHPqCK17O3-6">
          <mxGeometry width="50" height="50" relative="1" as="geometry">
            <mxPoint x="260" y="80" as="sourcePoint" />
            <mxPoint x="310" y="30" as="targetPoint" />
          </mxGeometry>
        </mxCell>
        <mxCell id="HXylfOp5oMyHPqCK17O3-9" value="" style="endArrow=classic;html=1;exitX=1;exitY=0.5;exitDx=0;exitDy=0;entryX=0;entryY=0.5;entryDx=0;entryDy=0;" edge="1" parent="1" source="HXylfOp5oMyHPqCK17O3-2" target="HXylfOp5oMyHPqCK17O3-7">
          <mxGeometry width="50" height="50" relative="1" as="geometry">
            <mxPoint x="510" y="370" as="sourcePoint" />
            <mxPoint x="400" y="210" as="targetPoint" />
          </mxGeometry>
        </mxCell>
        <mxCell id="HXylfOp5oMyHPqCK17O3-10" value="" style="endArrow=classic;html=1;entryX=0.43;entryY=1.017;entryDx=0;entryDy=0;entryPerimeter=0;" edge="1" parent="1" target="HXylfOp5oMyHPqCK17O3-2">
          <mxGeometry width="50" height="50" relative="1" as="geometry">
            <mxPoint x="210" y="370" as="sourcePoint" />
            <mxPoint x="276" y="110" as="targetPoint" />
          </mxGeometry>
        </mxCell>
        <mxCell id="HXylfOp5oMyHPqCK17O3-11" value="Machine learning" style="rounded=1;whiteSpace=wrap;html=1;" vertex="1" parent="1">
          <mxGeometry x="90" y="340" width="120" height="60" as="geometry" />
        </mxCell>
        <mxCell id="HXylfOp5oMyHPqCK17O3-12" value="" style="endArrow=classic;html=1;exitX=0.5;exitY=0;exitDx=0;exitDy=0;" edge="1" parent="1" source="HXylfOp5oMyHPqCK17O3-1">
          <mxGeometry width="50" height="50" relative="1" as="geometry">
            <mxPoint x="160" y="400" as="sourcePoint" />
            <mxPoint x="150" y="400" as="targetPoint" />
          </mxGeometry>
        </mxCell>
        <mxCell id="HXylfOp5oMyHPqCK17O3-13" value="" style="endArrow=classic;html=1;entryX=0;entryY=0.5;entryDx=0;entryDy=0;exitX=1;exitY=0.5;exitDx=0;exitDy=0;" edge="1" parent="1" source="HXylfOp5oMyHPqCK17O3-11" target="HXylfOp5oMyHPqCK17O3-4">
          <mxGeometry width="50" height="50" relative="1" as="geometry">
            <mxPoint x="290" y="230" as="sourcePoint" />
            <mxPoint x="310" y="300" as="targetPoint" />
          </mxGeometry>
        </mxCell>
        <mxCell id="HXylfOp5oMyHPqCK17O3-14" value="" style="endArrow=classic;html=1;entryX=0.433;entryY=0.033;entryDx=0;entryDy=0;entryPerimeter=0;exitX=1;exitY=0.5;exitDx=0;exitDy=0;" edge="1" parent="1" source="HXylfOp5oMyHPqCK17O3-11" target="HXylfOp5oMyHPqCK17O3-5">
          <mxGeometry width="50" height="50" relative="1" as="geometry">
            <mxPoint x="290" y="230" as="sourcePoint" />
            <mxPoint x="290" y="370" as="targetPoint" />
          </mxGeometry>
        </mxCell>
        <mxCell id="HXylfOp5oMyHPqCK17O3-17" value="" style="endArrow=classic;html=1;exitX=1;exitY=0.5;exitDx=0;exitDy=0;entryX=0;entryY=0.5;entryDx=0;entryDy=0;" edge="1" parent="1" source="HXylfOp5oMyHPqCK17O3-6" target="HXylfOp5oMyHPqCK17O3-18">
          <mxGeometry width="50" height="50" relative="1" as="geometry">
            <mxPoint x="750" y="170" as="sourcePoint" />
            <mxPoint x="760" y="50" as="targetPoint" />
          </mxGeometry>
        </mxCell>
        <mxCell id="HXylfOp5oMyHPqCK17O3-18" value="Prediction" style="ellipse;whiteSpace=wrap;html=1;" vertex="1" parent="1">
          <mxGeometry x="545" y="15" width="75" height="45" as="geometry" />
        </mxCell>
        <mxCell id="HXylfOp5oMyHPqCK17O3-19" value="Data set" style="rounded=1;whiteSpace=wrap;html=1;" vertex="1" parent="1">
          <mxGeometry x="670" y="30" width="120" height="30" as="geometry" />
        </mxCell>
        <mxCell id="HXylfOp5oMyHPqCK17O3-20" value="learning algorithm" style="rounded=1;whiteSpace=wrap;html=1;" vertex="1" parent="1">
          <mxGeometry x="670" y="110" width="120" height="30" as="geometry" />
        </mxCell>
        <mxCell id="HXylfOp5oMyHPqCK17O3-22" value="Hypothesis" style="rounded=0;whiteSpace=wrap;html=1;" vertex="1" parent="1">
          <mxGeometry x="680" y="203" width="100" height="40" as="geometry" />
        </mxCell>
        <mxCell id="HXylfOp5oMyHPqCK17O3-23" value="" style="endArrow=classic;html=1;exitX=0.5;exitY=1;exitDx=0;exitDy=0;" edge="1" parent="1" source="HXylfOp5oMyHPqCK17O3-19" target="HXylfOp5oMyHPqCK17O3-20">
          <mxGeometry width="50" height="50" relative="1" as="geometry">
            <mxPoint x="760" y="460" as="sourcePoint" />
            <mxPoint x="810" y="410" as="targetPoint" />
          </mxGeometry>
        </mxCell>
        <mxCell id="HXylfOp5oMyHPqCK17O3-25" value="" style="endArrow=classic;html=1;exitX=0.5;exitY=1;exitDx=0;exitDy=0;entryX=0.5;entryY=0;entryDx=0;entryDy=0;" edge="1" parent="1" source="HXylfOp5oMyHPqCK17O3-20" target="HXylfOp5oMyHPqCK17O3-22">
          <mxGeometry width="50" height="50" relative="1" as="geometry">
            <mxPoint x="660" y="510" as="sourcePoint" />
            <mxPoint x="720" y="310" as="targetPoint" />
          </mxGeometry>
        </mxCell>
        <mxCell id="HXylfOp5oMyHPqCK17O3-28" value="" style="endArrow=classic;html=1;entryX=0;entryY=0.5;entryDx=0;entryDy=0;exitX=0.25;exitY=1;exitDx=0;exitDy=0;" edge="1" parent="1" source="HXylfOp5oMyHPqCK17O3-30" target="HXylfOp5oMyHPqCK17O3-22">
          <mxGeometry width="50" height="50" relative="1" as="geometry">
            <mxPoint x="570" y="330" as="sourcePoint" />
            <mxPoint x="650" y="330" as="targetPoint" />
          </mxGeometry>
        </mxCell>
        <mxCell id="HXylfOp5oMyHPqCK17O3-30" value="Input" style="text;html=1;strokeColor=none;fillColor=none;align=center;verticalAlign=middle;whiteSpace=wrap;rounded=0;" vertex="1" parent="1">
          <mxGeometry x="630" y="203" width="40" height="20" as="geometry" />
        </mxCell>
        <mxCell id="HXylfOp5oMyHPqCK17O3-31" value="" style="endArrow=classic;html=1;entryX=0;entryY=0.5;entryDx=0;entryDy=0;" edge="1" parent="1">
          <mxGeometry width="50" height="50" relative="1" as="geometry">
            <mxPoint x="780" y="223" as="sourcePoint" />
            <mxPoint x="830" y="223" as="targetPoint" />
          </mxGeometry>
        </mxCell>
        <mxCell id="HXylfOp5oMyHPqCK17O3-32" value="Output" style="text;html=1;strokeColor=none;fillColor=none;align=center;verticalAlign=middle;whiteSpace=wrap;rounded=0;" vertex="1" parent="1">
          <mxGeometry x="780" y="200" width="40" height="20" as="geometry" />
        </mxCell>
        <mxCell id="HXylfOp5oMyHPqCK17O3-35" value="Label" style="ellipse;whiteSpace=wrap;html=1;" vertex="1" parent="1">
          <mxGeometry x="540" y="135.5" width="85" height="48" as="geometry" />
        </mxCell>
        <mxCell id="HXylfOp5oMyHPqCK17O3-36" value="" style="endArrow=classic;html=1;exitX=1;exitY=0.5;exitDx=0;exitDy=0;entryX=0.043;entryY=0.677;entryDx=0;entryDy=0;entryPerimeter=0;" edge="1" parent="1" source="HXylfOp5oMyHPqCK17O3-7" target="HXylfOp5oMyHPqCK17O3-35">
          <mxGeometry width="50" height="50" relative="1" as="geometry">
            <mxPoint x="550" y="400" as="sourcePoint" />
            <mxPoint x="600" y="350" as="targetPoint" />
          </mxGeometry>
        </mxCell>
        <mxCell id="HXylfOp5oMyHPqCK17O3-40" value="y= f(x)" style="ellipse;whiteSpace=wrap;html=1;" vertex="1" parent="1">
          <mxGeometry x="550" y="75" width="70" height="45" as="geometry" />
        </mxCell>
        <mxCell id="HXylfOp5oMyHPqCK17O3-41" value="" style="endArrow=classic;html=1;exitX=1;exitY=0.5;exitDx=0;exitDy=0;entryX=-0.02;entryY=0.325;entryDx=0;entryDy=0;entryPerimeter=0;" edge="1" parent="1" source="HXylfOp5oMyHPqCK17O3-6" target="HXylfOp5oMyHPqCK17O3-40">
          <mxGeometry width="50" height="50" relative="1" as="geometry">
            <mxPoint x="640" y="130" as="sourcePoint" />
            <mxPoint x="690" y="80" as="targetPoint" />
          </mxGeometry>
        </mxCell>
        <mxCell id="HXylfOp5oMyHPqCK17O3-44" value="Clustering" style="ellipse;whiteSpace=wrap;html=1;direction=south;" vertex="1" parent="1">
          <mxGeometry x="545" y="210" width="82.5" height="47.5" as="geometry" />
        </mxCell>
        <mxCell id="HXylfOp5oMyHPqCK17O3-46" value="" style="endArrow=classic;html=1;entryX=0.5;entryY=1;entryDx=0;entryDy=0;" edge="1" parent="1" target="HXylfOp5oMyHPqCK17O3-44">
          <mxGeometry width="50" height="50" relative="1" as="geometry">
            <mxPoint x="510" y="190" as="sourcePoint" />
            <mxPoint x="660" y="330" as="targetPoint" />
          </mxGeometry>
        </mxCell>
      </root>
    </mxGraphModel>
  </diagram>
</mxfile>
